<!-- Generated by IcoMoon.io -->
<svg version="1.1" xmlns="http://www.w3.org/2000/svg" width="32" height="32" viewBox="0 0 32 32">
<title>itunes-icon</title>
<path fill="#6e3c84" d="M31.826 25.185c-0.533 1.938-2.267 3.027-4.592 3.394-2.042 0.318-3.742 0.396-5.375-0.721-1.992-1.421-2.017-3.776-0.225-5.261 1.417-1.146 3.408-1.379 6.4-1.824 0.5-0.078 0.933-0.177 1.3-0.523 0.533-0.509 0.367-0.29 0.367-11.54 0-0.792-0.458-1.011-1.417-0.87-0.683 0.099-15.475 2.447-15.475 2.447-0.85 0.156-1.117 0.368-1.117 1.181 0 16.596 0.092 15.833-0.208 16.936-0.35 1.287-1.283 2.256-2.517 2.793-1.4 0.658-3.933 0.948-5.283 0.735-3.6-0.573-4.867-4.101-2.425-6.124 1.417-1.146 3.408-1.379 6.4-1.824 0.5-0.078 0.933-0.177 1.3-0.523 0.842-0.813 0.15-18.145 0.433-19.107 0.067-0.368 0.25-0.679 0.592-0.912 0.35-0.248 0.983-0.389 1.117-0.389 17-2.701 19.075-3.048 19.366-3.048 0.958-0.057 1.508 0.424 1.508 1.245 0.017 24.361 0.092 23.052-0.15 23.936v0z"></path>
</svg>
