<!-- Generated by IcoMoon.io -->
<svg version="1.1" xmlns="http://www.w3.org/2000/svg" width="32" height="32" viewBox="0 0 32 32">
<title>spotify-icon</title>
<path fill="#1db954" d="M16 0c-8.832 0-16 7.168-16 16s7.168 16 16 16c8.832 0 16-7.168 16-16s-7.168-16-16-16zM22.497 23.542c-0.271 0-0.439-0.084-0.69-0.232-4.026-2.426-8.71-2.529-13.335-1.581-0.252 0.064-0.581 0.168-0.768 0.168-0.626 0-1.019-0.497-1.019-1.019 0-0.665 0.394-0.981 0.877-1.084 5.284-1.168 10.684-1.064 15.29 1.69 0.394 0.252 0.626 0.477 0.626 1.065s-0.458 0.994-0.981 0.994v0zM24.232 19.31c-0.335 0-0.561-0.148-0.794-0.271-4.032-2.387-10.045-3.348-15.394-1.897-0.31 0.084-0.477 0.168-0.768 0.168-0.69 0-1.252-0.561-1.252-1.252s0.335-1.148 1-1.335c1.794-0.503 3.626-0.877 6.31-0.877 4.187 0 8.232 1.039 11.419 2.936 0.523 0.31 0.729 0.71 0.729 1.271-0.006 0.697-0.548 1.258-1.252 1.258v0zM26.232 14.394c-0.335 0-0.542-0.084-0.832-0.252-4.594-2.742-12.806-3.4-18.123-1.916-0.232 0.065-0.523 0.168-0.832 0.168-0.852 0-1.503-0.665-1.503-1.523 0-0.877 0.542-1.374 1.123-1.542 2.271-0.665 4.813-0.981 7.581-0.981 4.71 0 9.645 0.981 13.252 3.084 0.503 0.29 0.832 0.69 0.832 1.458 0 0.877-0.71 1.503-1.497 1.503v0z"></path>
</svg>
